# xmcd
#
# Track frame offsets:
#   150
#   13895
#   28398
#   49147
#   72188
#   87459
#   101752
#   114393
#   132557
#   144140
#   165155
#   183781
#   201036
#   219065
#   236078
#   247774
#
# Disc length: 3514 seconds
#
# Revision: 3
# Processed by: cddbd v1.5.2PL0 Copyright (c) Steve Scherf et al.
# Submitted via: Media_Universe 3.0
#
DISCID=d50db810
DTITLE=The Highwaymen - The Highwaymen - The Very Best Of The Highwaymen
DYEAR=2016
DGENRE=Country
TTITLE0=The Highwaymen - Highwayman
TTITLE1=The Highwaymen - Silver Stallion
TTITLE2=The Highwaymen - Desperados Waiting For A Train
TTITLE3=The Highwaymen - City Of New Orleans (live)
TTITLE4=The Highwaymen - Big River (live)
TTITLE5=The Highwaymen - The Last Cowboy Song
TTITLE6=The Highwaymen - Live Forever
TTITLE7=The Highwaymen - Born And Raised In Black And White
TTITLE8=The Highwaymen - One Too Many Mornings
TTITLE9=The Highwaymen - The Road Goes On Forever
TTITLE10=The Highwaymen - American Remains
TTITLE11=The Highwaymen - Against The Wind
TTITLE12=The Highwaymen - Living Legend
TTITLE13=The Highwaymen - Deportee (Plane Wreck At Los Gatos)
TTITLE14=The Highwaymen - Welfare Line
TTITLE15=The Highwaymen - The King Is Gone (So Are You) (live)
EXTD=
EXTT0=
EXTT1=
EXTT2=
EXTT3=
EXTT4=
EXTT5=
EXTT6=
EXTT7=
EXTT8=
EXTT9=
EXTT10=
EXTT11=
EXTT12=
EXTT13=
EXTT14=
EXTT15=
PLAYORDER=
